<svg id="visual" viewBox="0 0 900 600" width="900" height="600" xmlns="http://www.w3.org/2000/svg" xmlns:xlink="http://www.w3.org/1999/xlink" version="1.1"><rect x="0" y="0" width="900" height="600" fill="#1a1a1a"></rect><path d="M0 58L25 60.2C50 62.3 100 66.7 150 65.7C200 64.7 250 58.3 300 56.8C350 55.3 400 58.7 450 60.5C500 62.3 550 62.7 600 60.3C650 58 700 53 750 52C800 51 850 54 875 55.5L900 57L900 0L875 0C850 0 800 0 750 0C700 0 650 0 600 0C550 0 500 0 450 0C400 0 350 0 300 0C250 0 200 0 150 0C100 0 50 0 25 0L0 0Z" fill="#015ebc" stroke-linecap="round" stroke-linejoin="miter"></path></svg>