<svg id="visual" viewBox="0 0 900 600" width="900" height="600" xmlns="http://www.w3.org/2000/svg" xmlns:xlink="http://www.w3.org/1999/xlink" version="1.1"><rect x="0" y="0" width="900" height="600" fill="#000000"></rect><path d="M218 0L230.3 16.7C242.7 33.3 267.3 66.7 269.2 100C271 133.3 250 166.7 238.5 200C227 233.3 225 266.7 238.5 300C252 333.3 281 366.7 296.8 400C312.7 433.3 315.3 466.7 304.2 500C293 533.3 268 566.7 255.5 583.3L243 600L0 600L0 583.3C0 566.7 0 533.3 0 500C0 466.7 0 433.3 0 400C0 366.7 0 333.3 0 300C0 266.7 0 233.3 0 200C0 166.7 0 133.3 0 100C0 66.7 0 33.3 0 16.7L0 0Z" fill="#0066FF" stroke-linecap="round" stroke-linejoin="miter"></path></svg>